<?xml version="1.0" encoding="UTF-8"?>
<!DOCTYPE svg PUBLIC "-//W3C//DTD SVG 1.1//EN" "http://www.w3.org/Graphics/SVG/1.1/DTD/svg11.dtd">
<!-- Creator: CorelDRAW 2021.5 -->
<svg xmlns="http://www.w3.org/2000/svg" xml:space="preserve" width="8.26772in" height="11.6929in" version="1.1" style="shape-rendering:geometricPrecision; text-rendering:geometricPrecision; image-rendering:optimizeQuality; fill-rule:evenodd; clip-rule:evenodd"
viewBox="0 0 8267.72 11692.91"
 xmlns:xlink="http://www.w3.org/1999/xlink"
 xmlns:xodm="http://www.corel.com/coreldraw/odm/2003">
 <defs>
  <style type="text/css">
   <![CDATA[
    .str0 {stroke:black;stroke-width:20.95;stroke-miterlimit:2.61313}
    .fil0 {fill:#373435}
    .fil1 {fill:#00913D}
    .fil5 {fill:#312A29}
    .fil2 {fill:#76C5F0}
    .fil6 {fill:#77C5F1}
    .fil3 {fill:#FDF301}
    .fil4 {fill:white}
    .fil7 {fill:#373435;fill-rule:nonzero}
   ]]>
  </style>
 </defs>
 <g id="Layer_x0020_1">
  <metadata id="CorelCorpID_0Corel-Layer"/>
  <g id="_2488357388496">
   <polygon class="fil0" points="2560.11,6942.26 2660.64,6942.02 2660.72,6756.84 2761.43,6933.04 2864.23,6755.99 2864.23,7060.11 2962.31,7060.11 2962.31,6569.59 2857.07,6569.59 2762.36,6764.92 2664.74,6569.54 2560.1,6569.59 "/>
   <polygon class="fil0" points="4953.81,6942.38 5045.78,6942.23 5046.59,6860.07 5079.3,6811.9 5216.93,7059.87 5326.6,7060.33 5158.98,6725.72 5280,6569.58 5170.46,6569.73 5049.91,6697.15 5049.84,6569.54 4953.81,6569.59 "/>
   <path class="fil0" d="M3159.61 6696.44l29.35 87.46 -57.85 -0.03 28.5 -87.44zm-177.67 245.94l96.42 -0.29 20.79 -57.23 118.23 -1.56 49.46 176.68 97.69 0.12 -149.78 -490.46 -113.42 0.2c0,0 -117.05,346.08 -119.4,372.53z"/>
   <path class="fil0" d="M4404.43 6795.23l0 -127.54 58.45 0.61c8.54,0.07 27.5,20.61 35.79,37.69 10.83,22.37 -10.65,67.4 -30.37,78.85 -13.54,7.85 -33.02,10.36 -63.87,10.39zm-100.69 -225.65l-0.03 490.53 100.71 0 0.17 -174.9c63.99,-4.72 106.63,-6.42 146.65,-51.09 69.34,-77.45 41.69,-235.23 -57.5,-264.6l-190 0.07z"/>
   <polygon class="fil0" points="3354.73,6942.38 3443.02,6942.2 3443.04,6873.71 3560.76,6873.71 3560.75,7060.11 3649.04,7060.11 3649.04,6569.59 3560.75,6569.59 3560.75,6795.23 3443.04,6795.23 3443.04,6569.59 3354.73,6569.59 "/>
   <polygon class="fil0" points="4626.56,6569.67 4626.56,6942.02 4885.14,6942.38 4885.14,6844.28 4728.19,6844.28 4728.19,6805.03 4865.52,6805.03 4865.52,6716.74 4728.19,6716.74 4728.19,6667.69 4885.14,6667.69 4882.86,6569.51 "/>
   <g>
    <path class="fil1" d="M3746.42 4991.67c1.44,106.64 0.07,214.28 0.07,321.03 0,53.44 0,106.89 0,160.33 0,23.54 -2.7,147.09 1.09,158.62l109.77 -0.53c1.77,-5.58 5.13,-6.78 8.23,-11.15l14.81 -22.2c0.33,-0.48 1.26,-1.92 1.57,-2.43l97.52 -138.85c0.33,-0.47 1.26,-1.85 1.57,-2.35l20.33 -29.01c1.97,-3.21 2.62,-3.56 4.8,-6.74l27.42 -38.9c0.24,-0.36 0.53,-0.86 0.76,-1.24 0.24,-0.37 0.49,-0.9 0.72,-1.28 0.23,-0.39 0.48,-0.91 0.71,-1.29l1.49 -2.46c6.04,-8.83 -5.37,7.16 1.68,-2.17 2.25,-2.98 0.54,-0.3 2.52,-3.19l2.19 -3.67c1.46,-2.28 0.54,-1.27 2.38,-3.54 2.02,-2.49 3.62,-3.22 5.73,-5.94l19.21 -29.95c1.53,-2.18 3.35,-3.47 5.54,-5.94l19.35 -27.69c4.89,-5.5 2.28,-3.39 5.43,-8.3l9.43 -13.89c0.45,-0.62 2.3,-2.85 2.57,-3.25l1.49 -2.41c0.22,-0.37 0.46,-0.9 0.69,-1.27 3.89,-6.57 6.76,-7.3 10.33,-13l48.22 -70.47c4.33,1.89 33.6,32.83 39.11,38.35 6.8,6.83 12.9,12.61 19.72,19.39 14.89,14.8 24.61,20.72 31.18,27.46l29.2 29.47c6.26,6.24 32.34,33.81 39.15,37.15l4.15 -13.48c0.12,-0.57 0.2,-1.08 0.33,-1.63l31.94 -122.96c0.15,-0.51 0.34,-1 0.48,-1.52l3.95 -15.49c6.46,-18.33 9.31,-36.54 14.8,-55.42 0.15,-0.5 0.33,-0.99 0.46,-1.51 1.05,-4.06 0.77,-5.83 1.85,-9.88l17.31 -62.59c1.79,-5.35 -0.9,-3.23 2.95,-8.26 8.47,6.76 8.83,21.57 12.41,32.09 0.16,0.46 0.36,0.96 0.52,1.43l6.47 22.82c0.19,0.6 0.83,2.23 1.03,2.83l26.11 89.01c1.96,5.92 1.55,8.34 3.28,14.22 3.24,11.02 4.33,26.19 13.26,35.22l11.02 -18.44c1.96,-3.27 -0.8,0.46 2.2,-3.72l29.13 -41.35c0.33,-0.47 1.28,-1.89 1.59,-2.38l22.31 -32.4c4.28,-6.4 4.15,-9.61 9.82,-11.79 2.06,3.8 4,6.76 6.93,12.59l47.85 92.3c1.29,2.72 1.83,3.82 3.21,6.54 0.2,0.39 0.46,0.9 0.66,1.29l36.67 73.11c0.21,0.39 0.46,0.9 0.69,1.27l3.2 4.62c2.41,3.27 1.3,1.28 3.24,4.55 0.72,1.21 1.35,2.58 1.99,3.88 0.2,0.4 0.43,0.92 0.63,1.32l3.86 7.81c2.4,4.8 3.99,8.02 6.49,12.95l11.67 23.47c0.19,0.41 0.44,0.92 0.63,1.33l40.62 80.83c0.2,0.4 0.45,0.91 0.65,1.3l30.54 57.2c2.25,5.16 2.24,1.4 2.7,9.31l6.39 -1.68c7.8,-8.58 13.71,-16.75 20.29,-29.96 2.76,-5.52 6.27,-11.93 8.61,-16.7 2.74,-5.6 6.95,-13.54 8.33,-16.99 10.96,-27.41 16.29,-55.29 16.95,-85.66 -1.22,-37.75 -0.42,-77.86 -0.16,-115.8 0.1,-15.08 2.98,-75.1 -1.9,-87.09l-34.26 -67.37c-7.9,-11.31 -14.65,-26.04 -21.06,-39.32 -0.2,-0.41 -0.44,-0.92 -0.63,-1.32 -0.2,-0.4 -0.44,-0.91 -0.64,-1.3 -1.3,-2.59 -0.57,-1.08 -1.98,-3.76 -2.19,-4.18 -3.26,-6.48 -5.19,-10.45l-63.26 -122.63c-0.2,-0.41 -0.43,-0.93 -0.63,-1.34l-14.54 -29.09c-1.78,-3.56 -2.74,-5.23 -4.72,-8.97l-5.09 -10.45c-1.71,-3.69 -2.36,-5.28 -4.81,-8.67 -14.51,-20.11 -27.93,-52.48 -39.35,-75.62l-9.07 -18.15c-1.93,-3.7 -3.27,-6.85 -5.12,-10.49 -0.28,-0.55 -1.08,-2.15 -1.39,-2.68 -0.24,-0.41 -0.53,-0.89 -0.78,-1.3l-23.42 -43.43c-3.3,-6.62 -5.98,-12.48 -9.07,-18.48 -5.68,2.47 -1.22,-0.28 -4.69,4.16l-32.74 61.18c-2.41,3.47 -1.68,1.87 -3.59,4.69l-26.1 47.9c-2.77,5.58 -2.52,5.09 -5.95,9.61 -5.4,7.13 -9.59,22.62 -17.3,27.78 -2.74,-5.54 -0.48,-2.25 -2.11,-7.54 -0.15,-0.49 -0.31,-1.01 -0.47,-1.49l-8.53 -24.62c-0.15,-0.45 -0.36,-0.94 -0.5,-1.41l-31.54 -107.93c-1.04,-5.15 -0.28,-3.42 -1.67,-8 -0.15,-0.47 -0.36,-0.96 -0.51,-1.43l-23.11 -75.2c-6.45,6.07 -3.14,1.76 -5.89,10.2 -0.2,0.6 -0.76,2.35 -0.96,2.96 -0.15,0.47 -0.37,0.96 -0.51,1.43l-22.67 75.72c-0.16,0.46 -0.35,0.96 -0.51,1.43 -0.16,0.47 -0.33,0.98 -0.49,1.46l-14.58 47.83c-0.16,0.46 -0.35,0.97 -0.5,1.44l-31.16 101.4c-0.16,0.49 -0.29,1.02 -0.44,1.51 -0.15,0.5 -0.29,1.02 -0.44,1.52 -5.7,17.99 -23.91,81.35 -29.5,90.46 -9.57,-1.91 -21.63,-18.31 -30.07,-26.79 -5.47,-5.5 -13.83,-9.3 -29.67,-25.13 -10.11,-10.11 -17.13,-17.42 -28.04,-28.73 -6.77,-7.02 -9.45,-5.39 -15.91,-11.38l-41.93 -42.17c-6.04,-5.92 -9.59,-5.77 -15.69,-11.66l-40.96 -41.19c-5.61,-5.64 -10.39,-6.63 -15.7,-11.67 -2.89,-2.74 -3.85,-4.05 -6.64,-6.98 -1.47,-1.54 -2.43,-2.61 -4.06,-4 -3.21,-2.74 1.06,0.06 -3.89,-2.77l-21.73 16.39c-1.97,2.02 -2.74,2.96 -5.25,4.69l-25 17.87c-3.54,3.28 -4.92,5.91 -8.87,8.68 -6.12,4.3 -4.16,0.95 -10.59,7.04l-58.32 47.29c-5.11,4.54 -6.41,3.72 -10.89,6.84l-40.44 31.76c-9.02,9.34 -19.75,14.64 -30.07,22.8 -3.5,2.76 -5.46,5.93 -8.83,8.73 -5.16,4.28 -5.09,2.36 -10.63,6.91 -3.49,2.87 -5.48,6.09 -8.85,8.73 -5.77,4.52 -4.74,1.73 -10.67,6.95 -2.19,1.93 -2.74,3.09 -4.92,4.77 -4.31,3.32 -0.79,0.51 -4.85,2.93l-60.2 44.58z"/>
    <path class="fil2" d="M3445.59 4665.5l0.21 27.37 -0.21 527.92c0.71,4.52 -0.83,17.53 -0.83,25.93l1.21 0 0.26 -16.16c0.5,-0.3 1.21,-1.17 1.42,-0.78l11.9 -9.83c7.27,-7.46 7.85,-4.79 14.67,-10.75 6.03,-5.27 4.95,-6.22 13.63,-11.52l27.17 -22c1.74,-1.53 1.56,-1.4 3.39,-2.61 14.83,-9.78 25.72,-20.45 40.33,-29.84 4.92,-3.16 7.81,-8.07 12.11,-11.21 6.72,-4.89 5.57,-0.78 14.98,-10.69l29.12 -21.78c5.2,-4.08 6.74,-7.67 12.35,-11.13 14.31,-8.83 8.3,-8.87 20.78,-16.22 10.44,-6.15 5.15,-5.51 14.31,-10.98 0.37,-0.22 0.89,-0.46 1.27,-0.69l62.44 -49.15c8.67,-9.13 5.15,-21.1 5.15,-44.77 0,-41.05 1.92,-235.03 -0.64,-252.09 -7.22,4.06 -4.54,4.73 -23.3,13.98l-27.45 11.53c-8.56,2.66 -11.96,1.04 -19.09,-1.41 -6.35,-2.17 -14.36,-3.75 -19.83,-15.31 -0.71,-1.51 -4.55,-13.44 -4.54,-14.69 0.04,-1.69 4.1,-21.57 13.46,-26.1 22.18,-10.75 45.25,2 65.07,12.24 5.47,2.83 1.6,0 5.83,3.69 5.69,4.94 3.38,6.7 10.69,8l-0.02 -60.06c-7.68,1.54 -2.01,0.71 -7.61,4.74 -3.6,2.6 -1.19,0.76 -4.81,3.06 -19.68,12.59 -10.12,7.4 -33.49,15.19 -0.48,0.17 -1,0.34 -1.47,0.51 -31.81,11.02 -51.51,-17.81 -46.67,-34.16l3.48 -10.54c5.63,-16.14 15.49,-10.91 25.04,-14.45 -5.8,-9.17 -14.3,2.7 -23.92,-17.56 -0.42,-0.88 -4.68,-9.2 -4.69,-9.25 -2.37,-6.9 1.11,-13.74 3.98,-20.95 0.45,-1.14 1.76,-3.78 2.94,-5.21 11.99,-14.43 25.37,-11.98 41.87,-6.06 9.46,3.4 19.75,5.93 28.82,11.9 7.34,4.82 5.35,9.16 15.78,10.17l-0.91 -11.17c-1.98,-6.07 -5.5,-8.65 -7.87,-12.03l-14.25 -30.81c-6.32,-20.14 -11.02,-27.7 -2.41,-49.3l6.76 -8.95c2.2,-2.17 5.94,-6.32 8.17,-7.61 0.39,-0.24 0.9,-0.48 1.33,-0.69 0.43,-0.21 0.97,-0.39 1.42,-0.58 15.14,-6.26 20.62,-6.25 34,-1.72 10.7,3.62 2.9,-2.65 17.19,11.71 8.33,9.85 6.68,16.38 6.75,30.9 0.12,21.2 -1.98,10.93 -7.72,29.19l-9.35 19.91c-1.24,1.84 -2.03,2.43 -3.41,4.37l-13.99 23.05 0.09 6.91c7.35,-1.63 2.22,-0.94 7.65,-4.72 26.7,-18.67 27.25,-16.02 49.08,-23.04 0.62,-0.19 2.2,-0.91 2.81,-1.1 6.3,-1.89 10.24,-1.84 16.23,0.45 20.75,7.92 20.25,20.14 19.63,35.04 -0.42,10.07 0.9,4.89 -3.05,10.68l-5.68 7.62c-5.98,6.58 -11.26,4.26 -17.68,6.94 3.04,8.82 15.3,-1.81 23.74,16.17 3.03,6.44 2.17,2.01 2.67,11.1 2.17,39.66 -34.53,42.61 -62.13,28.52l-29.57 -16.79c-1.3,-0.55 -1.13,-0.76 -3.5,-1.17l-0.3 59.72c4.75,-0.82 8.37,-3.15 12.49,-6.24 11.26,-8.47 18.01,-13.19 31.48,-17.26 23.81,-7.19 16.2,-5.89 30.34,-2.96 5.28,1.11 2.91,-0.56 8.35,1.76 5.28,2.26 7.7,6.74 10.12,11.83 0.19,0.4 0.45,0.89 0.63,1.31 0.18,0.43 0.43,0.92 0.58,1.37 0.17,0.46 0.37,0.95 0.51,1.44 0.14,0.51 0.28,1.01 0.4,1.54 5.35,25 -6.66,32.19 -20.51,39.15 -0.39,0.2 -0.87,0.5 -1.27,0.68 -12.12,5.68 -37.36,-4.76 -48.84,-10.41 -21.37,-10.52 -12.76,-15.11 -23.92,-13.22l-0.32 276.34 60.19 -44.58c4.06,-2.42 0.55,0.38 4.85,-2.93 2.19,-1.69 2.72,-2.84 4.92,-4.77 5.91,-5.23 4.89,-2.43 10.67,-6.95 3.36,-2.64 5.35,-5.87 8.85,-8.74 5.53,-4.55 5.46,-2.63 10.63,-6.91 3.37,-2.8 5.33,-5.97 8.82,-8.73 10.33,-8.17 21.07,-13.47 30.08,-22.8l40.45 -31.77c4.48,-3.13 5.77,-2.3 10.88,-6.85l58.33 -47.29c6.44,-6.09 4.46,-2.74 10.59,-7.04 3.95,-2.77 5.33,-5.39 8.87,-8.68l25 -17.86c2.5,-1.73 3.28,-2.67 5.25,-4.69l21.73 -16.39c4.95,2.83 0.69,0.04 3.89,2.78 1.63,1.39 2.59,2.46 4.05,4 2.8,2.92 3.75,4.23 6.65,6.97 5.31,5.04 10.08,6.02 15.7,11.66l40.96 41.2c6.09,5.89 9.64,5.74 15.69,11.66l41.93 42.17c6.46,5.98 9.14,4.37 15.91,11.39 10.91,11.3 17.93,18.62 28.04,28.72 15.84,15.84 24.2,19.63 29.67,25.13 8.43,8.48 20.48,24.88 30.07,26.79 5.59,-9.1 23.81,-72.46 29.51,-90.45 0.15,-0.48 0.28,-1.02 0.44,-1.52 0.16,-0.48 0.29,-1.02 0.44,-1.51l31.16 -101.4c0.15,-0.46 0.34,-0.98 0.5,-1.44l14.59 -47.83c0.14,-0.47 0.33,-0.98 0.49,-1.46 0.15,-0.46 0.34,-0.96 0.5,-1.43l22.68 -75.71c0.14,-0.48 0.35,-0.96 0.51,-1.43 0.19,-0.61 0.76,-2.35 0.95,-2.96 2.75,-8.44 -0.56,-4.13 5.9,-10.2l23.09 75.2c0.15,0.46 0.37,0.95 0.51,1.43 1.39,4.57 0.64,2.85 1.67,8l31.54 107.92c0.14,0.46 0.36,0.95 0.5,1.41l8.54 24.62c0.15,0.48 0.32,1 0.46,1.5 1.63,5.28 -0.63,1.99 2.11,7.54 7.7,-5.17 11.89,-20.65 17.29,-27.78 3.43,-4.54 3.18,-4.04 5.95,-9.62l26.11 -47.91c1.9,-2.81 1.17,-1.21 3.58,-4.68l32.74 -61.18c3.47,-4.45 -1,-1.7 4.68,-4.17 3.09,6 5.77,11.86 9.07,18.48l23.42 43.44c0.26,0.41 0.55,0.88 0.78,1.3 0.31,0.54 1.11,2.13 1.39,2.67 1.85,3.63 3.19,6.79 5.13,10.48l9.06 18.16c11.43,23.13 24.83,55.5 39.34,75.61 2.46,3.4 3.1,4.99 4.81,8.68l5.09 10.45c1.97,3.74 2.94,5.42 4.71,8.97l14.55 29.09c0.2,0.42 0.44,0.93 0.63,1.34l63.26 122.63c1.93,3.96 2.99,6.27 5.19,10.45 1.4,2.67 0.67,1.17 1.97,3.75 0.2,0.41 0.45,0.9 0.64,1.31 0.2,0.4 0.44,0.91 0.64,1.32 6.41,13.29 13.16,28.01 21.05,39.33l34.27 67.37c4.88,12 2,72.01 1.89,87.09 -0.26,37.93 -1.05,78.06 0.17,115.81l3.91 -2.03 -0.17 -119.64c-2.08,-6.73 -1.6,-19.56 0.22,-27.37l0.11 -525.98c-2.7,-10.57 -2.45,-41.7 -0.32,-52.78 -0.39,-32.23 5.11,-87.61 -2.63,-115.83 -3.5,-12.79 2.17,-15.13 -5.91,-45.2l-9.39 -28.19c-1.98,-6.7 -0.26,-6.9 -4.1,-14.83 -2.11,-4.38 -4.12,-8.07 -5.87,-11.61l-8.41 -16.9c-0.28,-0.54 -1.01,-2.1 -1.3,-2.63l-25.94 -36.37c-10.9,-16.74 -41.66,-45.42 -57.04,-54.89 -8.81,-5.41 -31.13,-20.46 -39.26,-23.08l-19.11 -8.2c-12.43,-6.18 -18.38,-5.87 -28.42,-8.57 -1.37,-0.37 -3,-1.06 -4.33,-1.51l-7.24 -2.52c-10.87,-3.89 -7.76,-1.91 -18.62,-2.42 -12.63,-0.59 -5.96,-1.98 -15.75,-3.6l-162.19 -0.4c-6.65,1.77 -10.08,2.31 -15.65,0.13l-527.92 -0.08c-5.32,2.22 -3.61,1.89 -7.81,-0.33 -32.45,3.43 -138.47,-1.9 -151.93,0.75 -8.46,1.68 0.44,1.71 -10.46,3.24 -17.64,2.48 -8.73,-0.85 -32.59,6.21 -15.25,4.51 -13.69,0.94 -35,11.76 -11.76,5.96 -10.85,3.96 -18.29,7.08 -8.23,3.47 -7.75,5.81 -15.44,9.88 -2.46,1.3 -5.83,2.48 -9.13,4.6 -16.43,10.47 -33.91,25.5 -47.26,38.87 -23.05,23.08 -15.57,18.79 -23.54,27.28 -1.95,2.08 -1.79,1.32 -3.89,4l-17.24 25.7c-15.73,25.19 -21.99,48.01 -30.04,75.2 -2.64,8.92 -0.11,7.97 -2.8,16.65 -3.39,10.93 -2.13,10.93 -2.17,22.72 -0.08,17.07 -3.42,9.52 -4.08,23.32 -1.68,34.51 2.47,82.21 -0.05,123.26z"/>
    <path class="fil3 str0" d="M4816.57 5220.8c39.54,0 31.27,-3.16 43.71,-4 13.98,-0.95 21.98,1.81 34.68,-2.46 7.09,-2.39 16,-0.26 23.78,-1.64 7.44,-1.32 2.46,-1.45 8.74,-3 7.33,-1.82 18.81,0.58 22.72,0.15 5.52,-0.62 0.7,-1.13 8.16,-2.39 4.61,-0.77 8.94,0.05 13.38,-0.43 9.91,-1.06 11.09,-3.76 21.61,-3.8 11.37,-0.05 7.92,-2.56 31.31,-3.89 11.9,-0.68 10.94,-3.4 21.47,-3.94 2.52,-0.13 2.84,0.08 5.43,-0.44 9.35,-1.89 0.32,-0.38 5.69,-2.13l58.89 -9.56c0.58,-0.09 1.07,-0.19 1.63,-0.32 0.52,-0.12 1.01,-0.31 1.51,-0.45l44.16 -8.62c1.22,-0.41 -1,-0.37 4.38,-1.48l46.47 -8.29c10.32,-0.53 11.9,-3.02 21.42,-3.99 3.34,-0.34 1.7,0.09 5.08,-0.8 0.5,-0.13 0.96,-0.36 1.44,-0.51 0.46,-0.14 0.91,-0.43 1.38,-0.58l22.19 -5.18c4.36,-0.98 6.5,-0.33 10.68,-1.06 8.38,-1.45 2.13,-1.73 10.51,-3.17 10.76,-1.87 21.55,-2.46 32.87,-6.25l2.81 -1.08c7.93,-2.17 24.26,-2.7 37.05,-5.98l9.78 -1.96c0.48,-0.14 0.96,-0.37 1.44,-0.52l96.33 -20.98c2.99,-0.76 3.85,-0.54 6.66,-1.16l21.04 -4.37c0.5,-0.14 0.96,-0.36 1.45,-0.51l105.05 -24c0.47,-0.15 0.94,-0.4 1.4,-0.56 0.48,-0.16 0.96,-0.36 1.46,-0.5l35.01 -8c0.54,-0.14 1.05,-0.22 1.6,-0.36l59.61 -12.73c0.49,-0.15 0.95,-0.37 1.46,-0.5 3.3,-0.84 1.86,-0.41 5.06,-0.81l11.43 -2.26c0.48,-0.14 0.95,-0.37 1.44,-0.51l3.11 -0.8c2.06,-0.45 3,-0.35 5.06,-0.81l10.54 -3.13c4.17,-0.71 6.34,-0.09 10.68,-1.06 6.42,-1.44 -1.48,0.32 4.37,-1.51 0.47,-0.16 0.95,-0.38 1.43,-0.51l101.25 -23.89c0.54,-0.14 1.06,-0.24 1.6,-0.35 0.56,-0.14 1.08,-0.18 1.65,-0.31 2.52,-0.57 2.03,-0.24 4.81,-1.06l22.5 -4.87c0.46,-0.15 0.93,-0.4 1.39,-0.56l16.84 -4.67c3.13,-0.7 2.32,-0.35 5.23,-0.65l60.52 -13.78c1,-0.33 -0.48,-0.43 4.41,-1.46l36.74 -6.27c2.2,-0.22 3.03,0.01 5.45,-0.42 9.22,-1.58 -0.76,0.25 5.95,-1.86l94.91 -20.46c0.53,-0.14 1.04,-0.24 1.6,-0.36l11 -2.68c1.19,-0.38 0.39,-0.64 4.51,-1.37 3.61,-0.63 9.55,-0.28 13.41,-0.28l0 -9.77c-3.52,0 -8.49,0.31 -11.81,0.08 -11.17,-0.75 -8.75,-2.5 -19.3,-4.17 -12.41,-1.94 -15.69,-4.01 -31.68,-5.46 -5.42,-0.5 -5.33,0.08 -10.37,-1.37 -6.56,-1.89 0.25,-1.57 -10.96,-2.73 -9.96,-1.03 -8.92,-3.24 -19.53,-3.93l-73.46 -14.52c-5.37,-1.5 -5.24,-0.56 -10.37,-1.35 -4.3,-0.68 -2.49,-0.48 -4.7,-1.17 -0.46,-0.14 -0.91,-0.43 -1.38,-0.57 -0.46,-0.15 -0.91,-0.44 -1.38,-0.58 -0.49,-0.15 -0.94,-0.38 -1.44,-0.51 -5.12,-1.34 -7.46,-0.34 -12.37,-1.31 -11.47,-2.28 2.64,-0.61 -8.76,-2.97 -5.2,-1.08 -6.58,-0.1 -12.06,-1.63l-93.03 -18.42c-11.21,-0.7 -11.3,-2.78 -21.36,-4.06l-19.55 -3.92c-9.99,-1.27 -3.24,-1.26 -10.67,-3.02l-20.9 -4.52c-8.6,-1.14 -14.63,-1.04 -23.23,-2.19l-81.09 -16.67c-0.48,-0.14 -0.95,-0.38 -1.43,-0.53l-9.55 -2.19c-2.2,-0.23 -3.02,0 -5.45,-0.42 -9.04,-1.57 -2.63,-2.81 -14.06,-3.54l-73.48 -14.5c-5.45,-1.54 -5.04,-0.62 -10.43,-1.3 -10.06,-1.28 -3.29,-1.37 -10.65,-3.04l-14.93 -2.67c-1.93,-0.64 2.29,-0.56 -6.08,-1.75 -4.61,-0.65 -5.8,0.22 -10.67,-1.06l-20.69 -4.74c-5.71,-1.78 2.21,-0.04 -4.33,-1.53l-87.21 -16.42c-21.04,-1.02 -37.82,-6.67 -58.52,-9.91l-21.02 -4.41c-6.53,-1.48 1.4,0.26 -4.33,-1.53l-63.06 -13.2c-4.62,-0.65 -5.8,0.23 -10.67,-1.06l-44.52 -10.22c-3.57,-0.83 -3.57,-0.51 -7.16,-0.65 -5.81,-0.24 -5.21,0.45 -10.63,-1.11 -6.49,-1.87 0.06,-1.46 -10.95,-2.75l-24.65 -4.67c-6.53,-1.48 1.4,0.26 -4.33,-1.53l-75.16 -14.78c-0.61,-0.19 -2.15,-0.95 -2.77,-1.14l-20.8 -4.62c-10.17,-2.4 -19.12,-1.32 -28.31,-2.98 -8.33,-1.5 -2.14,-1.76 -10.48,-3.19l-51.72 -8.89c-7.35,-1.69 -0.58,-1.76 -10.64,-3.04l-104.14 -19.72 -0.11 525.98zm-415.69 -955.51l162.19 0.4c9.79,1.61 3.12,3 15.75,3.6 10.86,0.51 7.75,-1.47 18.62,2.42l7.24 2.52c1.33,0.45 2.97,1.14 4.33,1.51 10.04,2.71 15.98,2.4 28.42,8.57l19.11 8.2c8.12,2.62 30.44,17.67 39.26,23.08 15.38,9.46 46.13,38.15 57.04,54.89l25.94 36.37c0.28,0.52 1.02,2.09 1.3,2.63l8.41 16.9c1.74,3.54 3.75,7.23 5.87,11.61 3.83,7.93 2.11,8.13 4.1,14.83l9.39 28.19c8.08,30.07 2.4,32.41 5.91,45.2 7.74,28.22 2.24,83.6 2.63,115.83 4.8,-0.67 2.99,-0.11 5.94,-2.85l16.8 -28.93c0.11,-0.21 0.32,-0.75 0.43,-0.96 1.54,-3.2 -0.02,-0.86 2.79,-4.85l59.42 -100.98c2.23,-3.91 1.64,-2.37 4.05,-5.7 3.9,-5.38 1.18,-1.24 3.05,-5.81l23.67 -39.79c0.24,-0.34 0.57,-0.81 0.8,-1.17 0.24,-0.34 0.54,-0.84 0.75,-1.2l3.86 -7.87c0.98,-1.98 1.15,-2.33 1.98,-3.89 5.87,-11.01 -4.51,8.13 1.39,-2.52l17.17 -29.76c0.81,-1.65 2.65,-5.74 3.87,-7.86 5.46,-9.51 13.28,-21.03 17.69,-32.06l1.15 -2.94c0.12,-0.21 0.39,-0.71 0.52,-0.94l6.14 -8.89c1.41,-2.61 2.16,-4.5 3.84,-7.93l10.08 -15.33c1.44,-2.2 0.72,-1.15 2.08,-3.79l8.4 -17.03c0.2,-0.39 0.45,-0.9 0.65,-1.3l17.94 -30.94c2.09,-4.26 4.88,-10.31 7.08,-14.43l49.9 -92.84c0.21,-0.37 0.51,-0.87 0.75,-1.21l7.81 -11.74c0.2,-0.4 0.43,-0.91 0.63,-1.32l6.47 -13.07c0.2,-0.4 0.46,-0.9 0.68,-1.28l48.07 -92.72c2.22,-4.07 -0.36,-2.79 6.13,-11.47 0.33,-0.46 1.47,-1.63 1.84,-2.06l15.64 -29.32c0.2,-0.41 0.45,-0.92 0.65,-1.32 0.2,-0.39 0.45,-0.91 0.65,-1.31l55.95 -108.28c0.22,-0.38 0.5,-0.88 0.7,-1.26l48.74 -97.92c2.23,-5.22 1.96,-0.69 2.15,-9.57 -9.3,2.48 -19.15,8.89 -27.73,13.34l-26.37 14.68c-0.39,0.21 -0.89,0.47 -1.28,0.68 -0.52,0.27 -2.07,1.04 -2.6,1.31l-31.19 17.69c-3.04,1.66 -4.86,2.75 -7.59,4.14 -11.13,5.69 -22.9,10.65 -32.93,17.92l-97.73 52.83c-0.54,0.26 -2.11,1 -2.65,1.26 -0.8,0.38 -2.83,1.37 -3.93,1.93l-33.49 19.31c-2.57,1.38 -4.45,2.15 -7.88,3.85l-20.87 10.41c-3.13,1.38 -5.72,1.95 -8.45,3.28l-27.39 15.63c-4.12,2.07 -10.47,4.86 -14.31,7.2l-20.56 12.68c-0.41,0.2 -0.91,0.45 -1.31,0.65l-18.26 9.11c-0.41,0.2 -0.91,0.45 -1.31,0.65 -0.55,0.26 -2.08,1.02 -2.61,1.3 -0.39,0.2 -0.91,0.46 -1.3,0.67l-216.69 117.66c-5.36,2.67 -8.61,4.35 -14.36,7.16l-27.38 15.63c-2.4,1.22 -3.73,1.98 -6.33,3.44l-7.65 4.08c-0.41,0.2 -0.92,0.44 -1.32,0.64l-6.56 3.22c-0.37,0.23 -0.85,0.52 -1.21,0.75l-17.16 10.21c-6.25,2.56 -8.34,3.9 -14.49,7.02 -3.36,1.71 -3.11,1.56 -6.54,3.24 -1.65,0.81 -5.72,2.65 -7.85,3.87l-27.33 15.69c-4.29,2.14 -10.27,4.89 -14.41,7.1l-27.31 15.71c-8.92,4.45 -20.33,8.8 -28.35,14.67 -9.68,7.09 -22.41,11.73 -33.31,17.53l-27.5 15.61c-6.94,3.56 -5.05,-2.28 -6.31,5.94zm-543.57 0.05l527.92 0.08c4.68,-9.15 -0.62,-13.5 -1.97,-30.06 -0.28,-3.36 0.02,-1.96 -0.82,-5.06l-1.1 -2.79c-0.15,-0.45 -0.44,-0.9 -0.58,-1.37 -0.15,-0.48 -0.39,-0.95 -0.52,-1.44 -1.29,-4.88 -0.41,-6.04 -1.07,-10.67l-15.5 -74.44c-0.39,-3.23 0.08,-1.67 -0.82,-5.05 -0.13,-0.5 -0.36,-0.96 -0.51,-1.45 -0.19,-0.61 -0.96,-2.15 -1.15,-2.76l-4.41 -21.02c-1.3,-4.91 -0.45,-7.19 -1.58,-12.1 -1.51,-6.53 -1.65,-1.3 -2.9,-8.83l-9.5 -55.03c-0.14,-0.46 -0.41,-0.91 -0.58,-1.38l-5.59 -29.05c0.05,-6.6 -2.56,-9.52 -2.48,-16.22 0.07,-7.63 -4.14,-11.51 -4.09,-17.92 0.07,-9.75 -2.19,-12.08 -3.47,-20.88 -2.04,-14.04 -6.94,-28.88 -7.83,-43.01 -0.64,-10.25 -2.62,-11.7 -4.12,-21.3 -2.15,-13.67 -1.01,0.78 -3.24,-10.45 -0.81,-4.05 -0.11,-6.77 -0.91,-10.82l-4.82 -22.55c-0.19,-0.6 -0.96,-2.13 -1.15,-2.75 -1.5,-4.74 -0.59,-0.51 -1.33,-6.48l-3.28 -14.33c-0.85,-3.69 -0.38,-3.63 -0.74,-7.07 -0.31,-2.94 0.07,-2.06 -0.65,-5.22l-3.43 -16.13c-0.68,-4.3 -0.48,-2.48 -1.18,-4.69l-1.15 -2.77c-0.14,-0.47 -0.38,-0.94 -0.51,-1.44 -1.34,-5.12 -0.33,-7.47 -1.32,-12.37 -2.33,-11.56 -0.7,2.89 -3.03,-8.69 -0.9,-4.48 0,-8.46 -0.74,-12.96 -1.23,-7.57 -1.4,-2.31 -2.9,-8.83 -1.1,-4.81 -0.3,-7.48 -1.39,-12.29 -2.15,-9.43 -5.94,-19.26 -7.05,-30.1 -2.15,-20.81 -9.65,-41.37 -11.26,-62.83l-2.78 -7.96c-0.75,-3.67 0.68,-2.66 0.15,-9.21 -0.82,-10.43 -4.19,-6.6 -3.92,-17.77 0.28,-11.39 -2.74,-10.93 -3.82,-21.39 -1.16,-11.17 -0.89,-4.45 -2.73,-10.96 -1.53,-5.45 -0.61,-5.04 -1.29,-10.43 -1.3,-10.08 -1.38,-3.29 -3.06,-10.64 -1,-4.35 -0.35,-6.48 -1.06,-10.66 -1.76,-10.19 -6.28,-21.01 -7.39,-31.73l-13.78 -68.34c-0.58,-1.72 -0.33,1.64 -1.53,-4.33l-13.02 -73.02c-0.13,-0.5 -0.35,-0.96 -0.51,-1.45l-2.07 -5.74c-0.55,-2.76 -0.23,-2.91 -0.45,-5.42 -0.22,-2.49 0.08,-2.66 -0.46,-5.4 -1.85,-9.31 -0.39,-0.45 -2.07,-5.76l-13.05 -63.32c-0.65,-8.2 0.76,-9.14 -1.73,-15.41 -0.11,-0.27 -0.42,-0.78 -0.5,-1.07 -0.08,-0.28 -0.28,-0.83 -0.32,-1.15 -0.65,-3.54 1.11,-2.67 0.18,-9.27 -2.03,-14.43 -2.16,5.37 -3.72,-17.69l-7.29 -31.84c-0.72,-4.18 -0.07,-6.32 -1.07,-10.68 -1.64,-7.18 -1.67,-0.61 -3.03,-10.65l-3.24 -14.36c-1.07,-4.11 -0.49,-2.93 -0.86,-6.97 -1.21,-13.54 -6.89,-28.11 -7.82,-43.01 -0.59,-9.44 -0.81,-5.06 -2.22,-9.5l-6.06 -33.06c-2.28,-11.47 -0.59,2.65 -2.97,-8.76l-27.85 -116.84c0,9.04 -2.59,15.51 -5.12,24.22 -0.14,0.49 -0.37,0.96 -0.51,1.44 -1.82,5.85 -0.06,-2.05 -1.5,4.37 -1.09,4.89 -0.31,7.24 -1.57,12.13l-1.63 4.25c-0.85,2.78 -0.41,0.89 -1.19,4.67 -0.42,2.07 -0.23,2.79 -0.76,5.11 -0.13,0.54 -0.25,1.03 -0.39,1.56 -0.14,0.5 -0.34,0.99 -0.49,1.47l-22.46 94.85c-0.13,0.54 -0.23,1.06 -0.37,1.59 -0.13,0.51 -0.3,1.02 -0.44,1.52l-13.92 67.15c0.24,6.9 -2.71,8.38 -2.73,16.48l-1.59 9.48c-0.17,0.48 -0.42,0.94 -0.58,1.43 -0.15,0.49 -0.37,0.96 -0.51,1.46 -0.15,0.51 -0.3,1.02 -0.43,1.54l-25.66 121c-1.8,5.73 -0.05,-2.2 -1.54,4.33l-7.67 37.3c-1.35,5.12 -0.33,7.46 -1.32,12.37 -2.28,11.47 -0.59,-2.65 -2.97,8.76 -1.08,5.2 -0.09,6.58 -1.63,12.06l-14.89 73.11c-1.47,8.42 -1.71,2.19 -3.15,10.53 -0.72,4.19 -0.06,6.31 -1.07,10.67 -1.88,8.12 -2.24,0.22 -3.2,10.65 -0.5,5.56 1.55,9.75 -0.13,13.99 -2.23,5.67 -3.23,7.09 -3.1,14.25 0.13,7.92 -2.42,5.51 -2.84,16.56l-14.81 69.08c-1.6,7.02 -0.38,12.37 -2.6,18.9l-1.1 2.8c-1.09,4.12 -0.5,2.93 -0.85,6.97l-10.35 52.21c-2.04,6.41 -0.67,5.63 -1.58,12.1l-4.17 21.26c-2.33,11.58 -0.7,-2.89 -3.03,8.7 -0.91,4.46 0,8.45 -0.74,12.94 -1.24,7.57 -1.4,2.31 -2.9,8.83 -1.12,4.81 -0.3,7.48 -1.39,12.29l-11.15 57.3c-0.72,6.87 -2.12,6.32 -3.11,10.58l-1.06 10.66c-1.59,9.22 0.24,-0.76 -1.88,5.95 -0.39,1.27 -0.58,0.41 -1.3,4.57l-7.78 47.88c-0.08,5.98 0.78,-0.47 -0.15,4.04 -1.32,6.24 0.27,-2.04 -1.94,4.36 -3.35,9.74 0.26,-2.76 -0.55,9.77 -0.52,8.25 -2.93,10.12 -3.65,21.56 -0.69,10.87 -5.85,24.14 -7.36,31.74 -0.81,4.05 -0.12,6.77 -0.91,10.82 -2.23,11.22 -1.09,-3.23 -3.24,10.45l-4.08 21.34c-1.06,10.2 -3.5,12.11 -3.94,21.47l-10.61 51.96c-1.59,5.67 -0.56,6.69 -1.51,12.19 -1.32,7.66 -1.39,2.55 -2.84,8.88 -1.1,4.82 -0.28,7.48 -1.39,12.29 -1.51,6.52 -1.67,1.27 -2.91,8.83l-20.27 106.83c-1.4,7.3 -3.27,8.38 -3.23,15.77 0.04,7.85 -3.47,8.94 -2.23,12.67zm-411.72 400.17c2.52,-41.05 -1.63,-88.75 0.05,-123.26 0.67,-13.8 4,-6.25 4.08,-23.32 0.05,-11.79 -1.22,-11.79 2.17,-22.72 2.7,-8.68 0.17,-7.73 2.8,-16.65 8.05,-27.19 14.31,-50.02 30.04,-75.2l17.24 -25.7c2.1,-2.69 1.94,-1.93 3.89,-4 7.97,-8.49 0.49,-4.19 23.54,-27.28 13.36,-13.37 30.84,-28.39 47.26,-38.87 3.3,-2.11 6.67,-3.3 9.13,-4.6 7.69,-4.07 7.21,-6.41 15.44,-9.88 7.43,-3.12 6.53,-1.12 18.29,-7.08 21.3,-10.81 19.75,-7.24 35,-11.76 23.86,-7.06 14.95,-3.73 32.59,-6.21 10.9,-1.53 2,-1.57 10.46,-3.24 13.45,-2.65 119.47,2.69 151.93,-0.75 -2.02,-5.45 -10.32,-7.29 -15.59,-10.17l-23.96 -13.19c-3.38,-2.54 -1.85,-1.84 -5.69,-4.07 -12.2,-7.09 -25.47,-10.08 -36.44,-18.31 -7.84,-5.89 -18.95,-10.28 -28.13,-14.88 -23.56,-11.77 -21.87,-13.47 -37.46,-21.2l-7.83 -3.9c-0.41,-0.2 -0.91,-0.45 -1.31,-0.65l-5.22 -2.59c-0.41,-0.2 -0.92,-0.44 -1.32,-0.64 -0.41,-0.2 -0.93,-0.43 -1.33,-0.63 -0.41,-0.2 -0.93,-0.43 -1.33,-0.63 -10.01,-5.08 -9.29,-7.22 -26.22,-14.83 -5.32,-2.39 -8.95,-4.35 -14.44,-7.08 -5.24,-2.6 -9.67,-4.35 -14.02,-7.48l-46.26 -26.09c-3.7,-2.68 -3.36,-2.24 -7.46,-4.27 -13.94,-6.89 -29.56,-13.54 -42.55,-21.98l-9.94 -5.7c-0.39,-0.2 -0.9,-0.45 -1.3,-0.65 -0.41,-0.19 -0.91,-0.44 -1.31,-0.64 -0.41,-0.19 -0.91,-0.44 -1.32,-0.64l-41.39 -23.13c-5.34,-2.66 -8.63,-4.31 -14.34,-7.17l-14.38 -7.13c-6.2,-3.55 -4.93,-4.5 -12.93,-8.57 -10.17,-5.17 -19.8,-9.45 -28.78,-14.24 -6.33,-3.39 -5.38,-3.69 -12.3,-7.26l-25.8 -13.3c-0.39,-0.22 -0.89,-0.48 -1.28,-0.68l-23.41 -13.74c-0.39,-0.2 -0.9,-0.46 -1.29,-0.67 -0.38,-0.21 -0.88,-0.49 -1.26,-0.69l-23.32 -11.89c-6.97,-3.54 -1.77,-0.42 -7.22,-4.5l-55.91 -30.14c-10.28,-5.49 -21.46,-9.28 -31.19,-15.74l-64.62 -37.05c-19.82,-9.69 -68.4,-33.38 -84.24,-44.81l-3.55 -2.33c-0.37,-0.21 -0.87,-0.48 -1.25,-0.7 -0.37,-0.22 -0.88,-0.48 -1.26,-0.69 -0.39,-0.21 -0.91,-0.46 -1.3,-0.68l-5.21 -2.6c-0.41,-0.2 -0.9,-0.45 -1.31,-0.64 -0.41,-0.2 -0.9,-0.45 -1.31,-0.65l-14.35 -7.16c-0.39,-0.19 -0.91,-0.44 -1.31,-0.64l-73.19 -40.22c-5.21,-2.23 -0.69,-1.96 -9.57,-2.16 1.13,4.26 4.51,10.32 6.89,14.62l29.82 58.15c16.39,22.86 29.58,59.49 43.95,85.12l8.63 16.78c0.2,0.41 0.45,0.91 0.65,1.31 0.2,0.4 0.45,0.9 0.65,1.31l5.88 11.74c0.2,0.41 0.45,0.91 0.66,1.31l22.19 42.29c0.2,0.39 0.48,0.88 0.7,1.26 9.21,16.51 15.69,34.57 25.67,50.59l21.16 37.49c0.2,0.41 0.45,0.92 0.65,1.31 0.78,1.58 1.39,2.79 1.97,3.94l13.68 25.38c9.12,13.12 15.44,31.8 22.44,44.04l19.58 35.16c1.53,3.07 2,3.94 3.91,7.83l90.83 163.04c0.09,0.22 0.26,0.77 0.35,1.01 0.11,0.26 0.29,0.81 0.39,1.08 0.13,0.33 1.46,3.37 1.57,3.59l18.56 32.4c0.22,0.39 0.45,0.91 0.67,1.31 1.37,2.55 0.61,1.51 2.08,3.78l5.09 6.64c1.41,2.17 0.71,1.13 2.08,3.78l3.83 7.91c0.2,0.4 0.45,0.9 0.64,1.31l1.27 2.65c0.26,0.54 0.98,2.11 1.27,2.64l2.25 3.62c0.06,0.11 1.85,2.19 2.63,3.23l11.14 20.15c2.61,4.56 1.96,2.69 4.93,6.8 5.49,7.59 14.65,30.08 25.41,44.97 7.19,9.93 15.97,30.96 26.98,45.36l42.76 72.6c7.36,10.49 2.07,11.25 9.95,12.4zm0 555.3l0.21 -527.92c-6.84,-4.49 -6.4,0.01 -11.4,1.17l-15.34 2.46c-5.78,1.85 2.22,0.08 -4.28,1.58l-36.78 6.23c-5.71,1.8 2.21,0.05 -4.32,1.55l-16.62 2.93c-1.27,0.39 -0.42,0.58 -4.56,1.29l-35.68 7.34c-5.12,1.34 -7.46,0.33 -12.37,1.32 -11.46,2.28 2.65,0.59 -8.76,2.97l-31.61 5.54c-11.43,3.23 -31.86,3.82 -43.65,7.19 -5.74,1.64 -4.18,0.71 -10.13,1.6l-21.29 4.12c-7.67,1.33 -2.55,1.4 -8.88,2.85 -4.36,1 -6.5,0.35 -10.68,1.07 -8.38,1.45 -2.12,1.72 -10.51,3.17l-35.71 7.31c-4,1.06 -3.02,0.48 -6.89,0.93l-112.19 22.72c-4.82,1.11 -7.5,0.29 -12.3,1.39 -6.33,1.45 -1.22,1.53 -8.88,2.85 -10.7,1.84 -21.39,2.44 -32.87,6.24l-29.32 5.87c-17.39,0.7 -28.44,6.67 -42.91,7.94 -15.83,1.37 -20.57,4.18 -31.57,5.58 -5.39,0.69 -4.98,-0.24 -10.43,1.3 -6.51,1.84 0.21,1.58 -10.96,2.73l-26.64 4.64c-6.53,1.5 1.39,-0.24 -4.32,1.54l-40.22 8.67c-7.2,1.94 -7,-0.63 -21.81,3.6 -5.68,1.61 -6.66,0.56 -12.19,1.51 -7.66,1.33 -2.54,1.4 -8.88,2.85 -4.81,1.1 -7.48,0.3 -12.29,1.39l-20.81 4.61c-0.62,0.18 -2.16,0.94 -2.78,1.14l-13.55 2.09c-14.17,3.23 -60.23,14 -74.98,14.96l-53.19 11.33c-4.18,0.72 -6.31,0.07 -10.66,1.07 -20.58,4.71 -25.48,3.61 -40.94,7.94 -5.65,1.59 -6.7,0.56 -12.19,1.51 -7.66,1.32 -2.54,1.39 -8.88,2.85 -4.81,1.09 -7.48,0.27 -12.29,1.39 -6.51,1.5 -1.28,1.65 -8.82,2.9 -10.59,1.76 -8.15,-0.39 -20.4,3.08 -5.5,1.56 -6.81,0.54 -12.05,1.63 -11.34,2.35 2.55,0.61 -8.79,2.96 -5.2,1.07 -6.57,0.08 -12.06,1.61l-19.56 3.91c-0.49,0.15 -0.95,0.39 -1.43,0.54 -5.74,1.81 2.2,0.05 -4.32,1.54 -3.17,0.72 -2.28,0.35 -5.21,0.65 -2.2,0.22 -3.03,-0.01 -5.46,0.42 -4.12,0.7 -3.3,0.9 -4.56,1.3l-9.55 2.19c-2.39,0.28 -2.67,-0.02 -5.33,0.53l-23.95 5.38c-11.96,3.98 -22.83,4.68 -35.09,5.97l-19.43 4.02c-13.68,2.15 0.77,1.01 -10.45,3.24 -4.05,0.81 -6.77,0.11 -10.81,0.91 -11.24,2.23 3.22,1.09 -10.45,3.24 -5.13,0.8 -5,-0.14 -10.37,1.35l-44.85 9.91c-8.67,2.06 -20.8,1.23 -29.44,3.8 -7.65,2.26 2.03,1.41 -9.03,2.71 -3.54,0.41 -9.82,0.05 -13.64,0.05l0 9.77c13.87,0 24.15,2.85 34.93,6.13l113.3 25.52c8.4,1.44 -0.11,-0.18 4.58,1.3 5.12,1.6 -1.97,-0.11 4.32,1.54l68.09 14.02c4.17,0.72 6.31,0.07 10.67,1.07 7.19,1.64 0.62,1.67 10.65,3.03l40.5 8.39c7.69,1.34 2.61,1.39 8.91,2.83 4.78,1.09 7.48,0.31 12.3,1.39l8.91 2.81c2.07,0.45 3,0.35 5.06,0.81l16 3.56c3.23,0.4 1.67,-0.08 5.05,0.82 0.48,0.13 0.96,0.36 1.43,0.51l76.51 15.39c7.4,2.09 -1.83,1.11 9.14,2.59 6.07,0.82 4.39,-0.22 10.17,1.57l83.76 15.97c1.78,0.18 3.81,0.15 5.44,0.42 0.61,0.09 1.11,0.17 1.67,0.28l14.09 3.5c11.61,1.37 11.26,3.44 21.57,3.86 2.29,0.08 3.2,-0.08 5.55,0.31l26.87 6.36c5.37,1.51 5.24,0.57 10.38,1.37 13.67,2.15 -0.78,1 10.45,3.23 4.04,0.81 6.77,0.12 10.81,0.93 11.23,2.23 -3.22,1.09 10.45,3.23 5.17,0.81 4.99,-0.15 10.37,1.37 12.99,3.68 13.88,1.53 22.02,3.42l41.72 9.12c17.23,5.72 43.01,5.84 60.88,11.45l42.46 8.38c1.3,0.42 0.36,0.58 4.55,1.31l48.51 8.19c7.43,0.46 18.44,4.48 31.52,5.64l8.87 0.9c0.52,0.13 1,0.31 1.51,0.45l30.46 6.69c6.19,0.39 6.58,-0.61 12.57,1.12l30.39 6.77c11,1.28 4.45,0.87 10.94,2.74l56.67 9.81c0.5,0.13 0.97,0.36 1.45,0.51l4.2 1.66c4.87,1.28 6.06,0.41 10.67,1.07l87.63 17.96c4.71,1.47 0.54,0.59 6.5,1.33 9.84,1.22 8.87,3.3 19.5,3.96l83.69 14.06c7.73,1.05 2.04,1.25 8.89,2.84 4.82,1.12 7.48,0.3 12.31,1.4 6.33,1.45 1.21,1.52 8.89,2.84 11.9,2.06 20,4.29 33.7,4.29zm939.85 430.16l0.55 -18.4c-55.31,-0.06 -517.69,3.09 -528.62,-1.45l-109.77 0.54c-2.67,4.25 -0.58,4.8 -9.44,4.24 -6.4,-0.39 -5.32,0.78 -7.83,-4.35 -50.34,2.77 -37.36,-2.6 -56.8,-3.5l-32.87 -8.22c-4.41,-1 -11.58,-3.37 -16.19,-5.34l-16.29 -7.98c-0.38,-0.19 -0.88,-0.46 -1.26,-0.67l-18.12 -9.17c-13.28,-6.56 -33.78,-21.28 -43.24,-30.78 -9.11,-9.15 -19.7,-11.4 -26.97,-24.32 -7.33,-13.02 -6.77,-7.89 -15.37,-17.72 -10.08,-11.51 -24.09,-38.46 -30.46,-51.19l-4.68 -9.09c-5.9,-11.78 -10.6,-30.64 -14.88,-43.55l-2.99 -8.57c-1.58,-6.86 0.11,-10.04 -2.04,-17.73 -5.21,-18.68 -3,-128.83 -2.2,-146.98l-1.21 0c-6.02,2.99 -6.26,4.7 -9.48,11.51l-8 12.98c-0.13,0.21 -0.41,0.72 -0.52,0.95l-25.63 43.82c-0.21,0.41 -0.44,0.93 -0.64,1.32l-33.78 56.15c-0.25,0.33 -0.62,0.78 -0.85,1.11 -0.24,0.33 -0.58,0.81 -0.81,1.15l-59.1 103.18c-0.21,0.38 -0.48,0.89 -0.68,1.28l-31.94 58c-0.21,0.39 -0.45,0.91 -0.65,1.31l-13.2 21.98c-6.77,10.19 -10.15,21.66 -16.39,32.5 -3.55,6.2 -4.5,4.93 -8.57,12.93 -2.83,5.56 -4.48,9.09 -7.1,14.41l-15.71 27.44c-0.24,0.51 -0.91,1.98 -1.13,2.46 -0.13,0.31 -0.35,0.85 -0.46,1.14l-0.78 2.11c-0.09,0.23 -0.3,0.76 -0.41,0.99l-103.77 191.63c-0.2,0.41 -0.43,0.93 -0.63,1.33l-2.58 5.25c-0.2,0.39 -0.45,0.91 -0.65,1.3l-3.92 7.81c-5.69,10.61 4.32,-7.74 -1.39,2.52 -9.32,16.72 -15.59,34.44 -25.72,50.63l-85.88 170.04c-0.12,0.25 -3.21,6.51 -3.28,6.63l-9.7 13.76c-0.71,1.74 -0.51,-0.2 -1.38,4.49 -0.46,2.41 -0.39,3.03 -0.39,5.47l31.1 -13.87c0.04,-0.01 2.74,-2.31 3.19,-2.67 0.32,-0.26 0.74,-0.64 1.06,-0.89l48.26 -26.05c6.17,-4.62 7.54,-3.76 14.51,-7 5.41,-2.5 8.58,-4.37 14.32,-7.19l13.35 -8.17c4.72,-3.41 8.5,-4.64 14.04,-7.47l43.9 -24.53c0.38,-0.2 0.88,-0.49 1.26,-0.69l44.76 -23.68c2.01,-0.88 5.18,-2.56 7.84,-3.91l27.89 -15.11c4.93,-3.69 0.49,-0.96 5.91,-3.86l35.59 -19.17c0.46,-0.35 1.7,-1.41 2.16,-1.75l25.71 -13.41c5.43,-3.04 8.49,-4.36 14.21,-7.29l69.69 -37.85c8.84,-4.42 20.57,-8.61 28.26,-14.75l4.16 -3.67c0.33,-0.24 0.81,-0.57 1.16,-0.8 0.49,-0.31 1.98,-1.11 2.51,-1.4l87.77 -47.14c0.74,-0.45 5.74,-2.94 6.47,-3.3 2.41,-1.19 5.58,-2.75 7.85,-3.88l41.72 -22.81c5.46,-2.72 8.62,-4.35 14.13,-7.42l40.93 -21.59c0.41,-0.2 0.91,-0.45 1.31,-0.65l9.2 -4.49c0.54,-0.26 2.09,-1.01 2.6,-1.3 12.01,-7.04 2.17,-3.63 26.98,-16.03l33.84 -18.95c2.13,-1.22 6.2,-3.05 7.86,-3.87l70.8 -36.74c0.54,-0.27 2.07,-1.04 2.56,-1.34 2.77,-1.65 0.76,-0.38 3.47,-2.4l12.03 -7.53c0.38,-0.21 0.87,-0.5 1.24,-0.71l41.57 -22.94c7.81,-4.88 13.61,-7.6 22.47,-6.87l3.02 14.83c3.1,11.88 2.4,23.26 6.47,36.29l2.3 11.39c0.4,3.24 -0.09,1.65 0.82,5.04 0.13,0.5 0.35,0.96 0.51,1.44 2.41,7.57 1.33,12.58 2.92,20.54l6.28 25.01c3.39,12.04 2.8,23.05 6.44,34.61l2.31 7.47c0.91,6.44 -0.43,5.7 1.58,12.1 0.15,0.47 0.42,0.93 0.58,1.39 0.14,0.45 0.43,0.91 0.57,1.37l3.62 17.89c0.4,1.25 0.59,0.43 1.31,4.56l3.16 16.39c1.6,5.56 0.8,4.8 1.1,10.64l5.3 27.93c0.15,0.46 0.43,0.91 0.58,1.38l6.57 34.48c1.81,7.86 2.02,0.38 3.1,10.58 0.4,3.81 -0.24,7.43 0.41,11.33l4.99 22.4c1.15,4.38 0.09,-1.2 0.85,2.47 0.78,3.86 0.24,0.88 0.17,5.39 -0.32,18.13 4.5,4.63 4.17,17.91 -0.28,11.61 3.59,11.74 3.79,17.72 0.07,2.11 -0.88,7.07 -0.57,10.51 0.95,10.43 1.3,2.53 3.19,10.64 1.01,4.36 0.34,6.48 1.07,10.68 1.44,8.33 1.68,2.1 3.15,10.53l4.95 32.19c1.68,7.28 1.8,0.46 3.1,10.59l12.35 69.77c2.61,13.1 6.39,21.94 7.37,37.61 0.58,9.45 0.8,5.06 2.22,9.51l4.74 20.69c1.34,5.11 0.33,7.44 1.31,12.36 2.29,11.47 0.61,-2.63 2.97,8.76l4.3 21.13c0.51,4.85 -0.42,7.92 0.75,12.93 2.21,9.54 5.95,18.98 7.1,30.06 0.67,6.45 -0.45,4.26 1.47,10.32l2.02 13.92c0.25,4.88 3.23,6.73 3.14,11.8l-0.06 8.23c1.21,4.94 3.7,4.49 3.87,9.51 0.12,3.34 -1.12,7.54 -0.36,12.26 1.25,7.62 1.43,2.21 2.98,8.89 1.12,4.8 0.29,7.47 1.39,12.29 1.44,6.29 1.48,1.21 2.83,8.91l2.92 14.69c0.14,0.48 0.37,0.94 0.5,1.44 0.89,3.36 0.41,1.83 0.82,5.05l6.74 32.37c1.53,5.45 0.62,5.04 1.3,10.43 1.46,11.43 6,21.33 7.46,31.66 0.65,4.61 -0.21,5.8 1.07,10.66l7 32.1c0.89,8.62 2.24,7.1 3.48,14.12l4.75 28.49c2.3,11.46 0.61,-2.65 2.97,8.76l15.93 74.02c1.88,13.19 1.77,18.92 5.5,27.74 1.69,3.97 0.71,-0.88 1.3,3.37 0.77,5.59 -0.32,-2.91 -0.41,6.1 -0.11,11.04 0,4.43 2.19,8.89 3.26,6.66 0.76,11.28 3.03,18.46 1.83,5.73 0.07,-2.19 1.59,4.36l28.92 131.43c0.13,0.5 0.35,0.96 0.5,1.45 3.62,11.86 8.68,26.36 10.22,38.65 1.83,14.44 7.99,28.3 7.99,42.85 6.69,-1.78 6.64,-5.39 7.5,-11.89 0.54,-4.07 0,-7.63 0.41,-11.47l13.02 -63.26c0.14,-0.46 0.41,-0.91 0.57,-1.38 0.15,-0.46 0.43,-0.91 0.58,-1.38l9.69 -50.93c2.36,-11.4 0.68,2.7 2.97,-8.75 0.97,-4.93 -0.04,-7.26 1.32,-12.37 0.13,-0.5 0.35,-0.96 0.51,-1.44l3.92 -19.56c1.3,-4.12 1.58,2.14 2.5,-9.21l3.78 -21.65c0.25,-1.95 0.07,-3.6 0.32,-5.55 0.08,-0.64 0.09,-1.13 0.2,-1.74l10.68 -46.04c1,-4.36 0.33,-6.5 1.06,-10.66 1.54,-8.79 2.08,-2.26 3.23,-10.58 0.95,-6.84 -0.82,-8.88 1.01,-12.79 3.91,-8.33 1.13,-12.71 3.33,-18.54 1.69,-4.43 0.39,1.89 2.65,-4.57 2.26,-6.45 0.44,-4.41 0.5,-9.63 0.11,-8.88 3.37,-4.64 2.87,-14.93 -0.43,-8.96 1.65,-10.5 2.93,-16.06l8.74 -47.98c2.14,-13.68 1,0.77 3.23,-10.45 0.81,-4.05 0.12,-6.77 0.93,-10.82 2.23,-11.22 1.09,3.23 3.23,-10.45 0.81,-5.13 -0.13,-5 1.36,-10.37l3.14 -16.43c0.71,-4.14 0.9,-3.29 1.3,-4.56 1.81,-5.74 0.05,2.2 1.54,-4.32l6.56 -38.41c0.59,-1.71 0.31,1.6 1.51,-4.37l4.76 -28.48c1.34,-7.7 1.39,-2.63 2.83,-8.91 1.09,-4.81 0.28,-7.5 1.39,-12.3 1.44,-6.28 1.48,-1.2 2.83,-8.89l10.98 -53.56c1.53,-5.44 0.61,-5.04 1.29,-10.43 1.32,-10.18 1.58,-3.44 3.14,-10.71 1.33,-6.27 -1.15,-8.44 0.72,-13.37 1.39,-3.65 2.46,-1.44 3.59,-7.62 0.89,-4.93 -0.96,-11.79 0.62,-15.58l5.18 -21.26c2.09,-6.06 -0.72,-6.76 1.36,-14.45l6.04 -25.41c3.13,-13.74 2.99,-22.66 7.16,-35.86 0.15,-0.48 0.38,-0.94 0.51,-1.44l2.23 -15.37c1.56,-5 0.15,3.4 2.06,-5.77l9.18 -53.39c0.13,-0.5 0.35,-0.96 0.51,-1.44l14.74 -73.26c2.38,-11.41 0.69,2.71 2.97,-8.76l8.93 -53.64c1.45,-6.22 1.56,-1.14 2.9,-8.83 0.95,-5.5 -0.1,-6.52 1.51,-12.19 2.11,-7.5 1.19,1.97 2.6,-9.12l1.33 -10.46c2.72,-9.58 0.9,-12.65 4.15,-19.3 2.65,-5.44 1.45,-6.96 2.08,-15.17 0.02,-0.35 0.11,-0.89 0.15,-1.22l5.01 -23.25c1.53,-5.46 0.6,-5.05 1.29,-10.44 1.46,-11.41 6,-21.31 7.46,-31.65l13.91 -74.09c0.48,-1.47 0.34,1.34 1.48,-4.38l4.76 -28.47c1.34,-7.7 1.39,-2.63 2.83,-8.91 1.09,-4.81 0.28,-7.48 1.39,-12.3 2.2,-9.66 5.87,-18.94 7.03,-30.09l1.61 -10.28c0.11,-0.33 0.35,-0.96 0.64,-1.37zm427.18 -281.11c-0.67,30.36 -5.98,58.24 -16.94,85.65 -1.39,3.44 -5.59,11.39 -8.34,16.99 -2.33,4.76 -5.84,11.17 -8.59,16.7 -6.59,13.2 -12.49,21.37 -20.3,29.94 -6.76,14 -20.41,25.41 -31.48,35.43 -1.22,1.1 -2.63,2.96 -3.75,4.31 -13.66,16.31 -16.98,11.85 -23.93,19.31 -9.11,9.77 -21.92,16.14 -35.01,23.29 -31.05,16.98 -81.45,31.21 -114.78,31.1 -48.2,-0.14 -100.06,1.3 -147.24,-0.22 4.57,7.84 3.11,3.91 10.22,8.85 0.41,0.28 1.11,0.09 1.3,0.7l10.39 7.3c12.87,8.67 29.41,13.22 41.91,22.62 3.55,2.67 1.27,1.26 5.89,3.88 1.08,0.61 1.45,0.77 2.55,1.35 1.54,0.81 2.04,1.04 3.91,1.96l20.9 10.39c12.27,6.1 20.46,13.42 33.55,19.25l218.33 117.96c11.38,5.61 24.64,10.63 35.06,17.74l33.05 17.79c0.41,0.19 0.91,0.44 1.32,0.64l3.92 1.95c0.41,0.2 0.91,0.45 1.31,0.64l13.18 8.34c12.9,9.94 29.37,14.8 42.68,23.8 14.64,9.92 55.66,28.2 74.7,38.7l105.95 58.3c16.78,10.44 34.58,16.49 50.43,27.78l6.28 3.5c0.4,0.2 0.91,0.43 1.33,0.63l31.73 17.15c14.83,11.35 37.65,19.93 54.65,29.43l67.46 36.17c0.4,0.2 0.9,0.45 1.3,0.65 0.39,0.2 0.91,0.45 1.3,0.65l6.4 3.39c4.23,1.93 -1.32,2.23 9.25,2.47 -0.93,-8.48 -1.94,-5.96 -5.85,-13.7l-17.19 -34.66c-0.11,-0.26 -0.3,-0.81 -0.4,-1.08 -11.9,-28.48 -28,-55.23 -35.88,-71.12 -0.54,-1.09 -1.17,-2.37 -1.94,-3.92 -0.19,-0.4 -0.44,-0.91 -0.64,-1.32l-3.24 -6.54c-0.22,-0.35 -0.51,-0.85 -0.74,-1.2l-15.61 -27.42c-0.2,-0.39 -0.47,-0.89 -0.69,-1.27 -0.2,-0.38 -0.48,-0.88 -0.7,-1.26l-7.09 -13.87c-0.12,-0.26 -0.3,-0.82 -0.41,-1.07l-20.1 -41.54c-1.64,-3.26 -1.57,-3.09 -3.26,-6.52l-12.43 -20.81c-1.37,-2.65 -1.92,-3.78 -3.38,-6.4l-25.63 -50.64c-2.65,-4.67 -1.28,-2.4 -3.94,-5.97 -0.08,-0.12 -2.4,-3.05 -2.42,-3.09l-36.28 -69.52c-2.11,-4.28 -4.9,-10 -7.27,-14.24l-2.14 -3.73c-0.2,-0.38 -0.47,-0.88 -0.69,-1.27l-10.88 -18.44c-0.25,-0.33 -0.58,-0.81 -0.81,-1.15 -0.23,-0.35 -0.52,-0.84 -0.74,-1.21l-5.18 -10.46c-0.2,-0.4 -0.46,-0.91 -0.65,-1.31 -0.2,-0.4 -0.45,-0.9 -0.65,-1.3 -0.2,-0.41 -0.45,-0.91 -0.65,-1.31l-10.65 -20.61c-7.59,-10.21 -12.56,-23.29 -18.94,-35.83 -4.07,-8 -5.02,-6.73 -8.58,-12.92 -5.29,-9.22 -8.57,-20.04 -14.61,-28.41 -2.46,-3.38 -1.78,-1.65 -4.23,-5.56l-20.01 -34.87c-4.79,-8.02 -5.85,-18.43 -12.61,-26.36l-8.12 -13.38c-0.26,-0.55 -1.03,-2.08 -1.29,-2.61 -0.2,-0.4 -0.45,-0.9 -0.65,-1.31 -0.19,-0.41 -0.44,-0.91 -0.64,-1.31l-1.26 -2.65c-0.27,-0.54 -1.02,-2.09 -1.32,-2.6l-56.37 -98.09c-3.88,-7.35 -4.61,-5.52 -8.59,-12.93 -1.09,-2.03 -2.12,-4.28 -3.31,-6.46l-37.69 -62.04c-1.15,-2.39 -1.94,-4.18 -3.42,-6.35l-17.4 -28.65c-2.49,-6.26 -9.98,-23.37 -15.97,-27.35 -4.07,-2.72 2.15,-2.06 -3,-0.54l0.17 119.64 -3.91 2.03z"/>
    <path class="fil4" d="M3857.35 5631.11c10.94,4.53 473.31,1.38 528.63,1.44l-0.54 18.39 1.76 -13.69c8.17,0.68 16.72,3.71 25.28,3.91 -7.11,-4.93 -5.65,-1.01 -10.22,-8.85 47.18,1.52 99.04,0.08 147.24,0.23 33.33,0.11 83.73,-14.13 114.78,-31.1 13.09,-7.16 25.91,-13.52 35,-23.29 6.95,-7.46 10.27,-2.99 23.93,-19.31 1.13,-1.35 2.54,-3.2 3.76,-4.31 11.07,-10.01 24.73,-21.43 31.48,-35.42l-6.39 1.68c-0.46,-7.91 -0.45,-4.15 -2.7,-9.31l-30.54 -57.2c-0.2,-0.4 -0.45,-0.9 -0.65,-1.3l-40.62 -80.83c-0.19,-0.41 -0.44,-0.92 -0.63,-1.33l-11.67 -23.47c-2.5,-4.93 -4.09,-8.15 -6.49,-12.95l-3.86 -7.81c-0.2,-0.41 -0.43,-0.92 -0.63,-1.32 -0.65,-1.3 -1.27,-2.67 -1.99,-3.88 -1.94,-3.27 -0.84,-1.28 -3.24,-4.55l-3.2 -4.62c-0.22,-0.37 -0.48,-0.89 -0.69,-1.27l-36.67 -73.11c-0.2,-0.39 -0.46,-0.9 -0.66,-1.29 -1.38,-2.72 -1.92,-3.81 -3.21,-6.54l-47.85 -92.3c-2.93,-5.83 -4.87,-8.8 -6.93,-12.59 -5.67,2.18 -5.54,5.39 -9.82,11.79l-22.31 32.4c-0.31,0.49 -1.26,1.91 -1.59,2.38l-29.13 41.35c-3.01,4.19 -0.24,0.46 -2.2,3.72l-11.02 18.44c-8.93,-9.03 -10.01,-24.2 -13.26,-35.22 -1.73,-5.88 -1.32,-8.3 -3.28,-14.22l-26.11 -89.01c-0.2,-0.6 -0.84,-2.22 -1.03,-2.83l-6.47 -22.82c-0.16,-0.46 -0.37,-0.96 -0.52,-1.43 -3.58,-10.51 -3.94,-25.32 -12.41,-32.09 -3.85,5.03 -1.17,2.91 -2.95,8.26l-17.31 62.59c-1.09,4.05 -0.81,5.82 -1.85,9.88 -0.14,0.52 -0.32,1 -0.46,1.51 -5.49,18.89 -8.35,37.09 -14.8,55.42l-3.95 15.49c-0.14,0.52 -0.33,1.01 -0.48,1.52l-31.94 122.96c-0.13,0.55 -0.21,1.07 -0.33,1.63l-4.15 13.48c-6.8,-3.34 -32.89,-30.91 -39.15,-37.15l-29.2 -29.47c-6.57,-6.75 -16.29,-12.67 -31.18,-27.46 -6.82,-6.78 -12.91,-12.56 -19.72,-19.39 -5.5,-5.52 -34.78,-36.46 -39.11,-38.35l-48.22 70.47c-3.58,5.7 -6.44,6.43 -10.33,13 -0.22,0.37 -0.46,0.9 -0.69,1.27l-1.49 2.41c-0.27,0.4 -2.12,2.63 -2.57,3.25l-9.43 13.89c-3.15,4.9 -0.54,2.8 -5.43,8.3l-19.35 27.69c-2.2,2.47 -4.02,3.76 -5.54,5.94l-19.21 29.95c-2.11,2.72 -3.71,3.45 -5.73,5.94 -1.84,2.27 -0.92,1.26 -2.38,3.54l-2.19 3.67c-1.98,2.9 -0.27,0.21 -2.52,3.19 -7.05,9.33 4.36,-6.67 -1.68,2.17l-1.49 2.46c-0.23,0.38 -0.48,0.91 -0.71,1.29 -0.23,0.38 -0.49,0.91 -0.72,1.28 -0.23,0.37 -0.52,0.87 -0.76,1.24l-27.42 38.9c-2.19,3.18 -2.83,3.53 -4.8,6.74l-20.33 29.01c-0.31,0.5 -1.24,1.87 -1.57,2.35l-97.52 138.85c-0.31,0.51 -1.24,1.95 -1.57,2.43l-14.81 22.2c-3.1,4.37 -6.46,5.57 -8.23,11.15z"/>
    <path class="fil1" d="M3445.96 5246.74c-0.81,18.14 -3.02,128.28 2.2,146.96 2.15,7.69 0.46,10.87 2.04,17.74l3 8.56c4.28,12.91 8.98,31.77 14.87,43.55l4.69 9.1c6.36,12.73 20.37,39.68 30.46,51.19 8.6,9.83 8.04,4.7 15.37,17.71 7.27,12.92 17.86,15.17 26.97,24.33 9.46,9.5 29.96,24.22 43.24,30.77l18.12 9.17c0.38,0.2 0.87,0.47 1.26,0.67l16.3 7.98c4.61,1.97 11.78,4.34 16.19,5.34l32.87 8.22c19.44,0.9 6.46,6.26 56.8,3.5 3.48,-11.24 1.24,-630.74 1.24,-700.12 0,-60.43 -1.69,-146.35 -0.13,-205.44 0.33,-12.54 7.74,-15.64 0.02,-19.52 -7.3,-1.3 -5,-3.06 -10.68,-8.01 -4.24,-3.68 -0.36,-0.87 -5.84,-3.69 -19.82,-10.23 -42.89,-22.98 -65.07,-12.24 -9.35,4.53 -13.43,24.43 -13.45,26.1 -0.02,1.26 3.83,13.19 4.54,14.69 5.47,11.56 13.48,13.14 19.83,15.31 7.13,2.44 10.53,4.07 19.09,1.41l27.46 -11.53c18.76,-9.25 16.07,-9.92 23.3,-13.98 2.56,17.07 0.65,211.04 0.65,252.08 0,23.67 3.51,35.64 -5.15,44.78l-62.44 49.15c-0.37,0.22 -0.9,0.46 -1.27,0.69 -9.16,5.48 -3.87,4.83 -14.31,10.99 -12.47,7.35 -6.47,7.39 -20.78,16.22 -5.6,3.46 -7.15,7.05 -12.35,11.13l-29.11 21.79c-9.42,9.9 -8.27,5.79 -14.98,10.68 -4.3,3.13 -7.2,8.06 -12.11,11.22 -14.61,9.39 -25.5,20.07 -40.33,29.84 -1.83,1.2 -1.65,1.08 -3.39,2.61l-27.17 22.01c-8.69,5.29 -7.6,6.24 -13.63,11.52 -6.81,5.95 -7.39,3.28 -14.67,10.74l-11.9 9.83c-0.21,-0.39 -0.92,0.48 -1.42,0.79l-0.27 16.17z"/>
    <path class="fil5" d="M3731.42 4646.39l0.02 60.06c7.72,3.87 0.31,6.98 -0.02,19.52 -1.56,59.09 0.13,145.01 0.13,205.44 0,69.39 2.24,688.89 -1.24,700.12 2.51,5.13 1.43,3.95 7.83,4.35 8.86,0.55 6.77,0.01 9.44,-4.24 -3.79,-11.53 -1.09,-135.08 -1.09,-158.62 0,-53.44 0,-106.89 0,-160.33 0,-106.75 1.37,-214.39 -0.07,-321.03l0.33 -276.33c-3.04,-5 1.61,-2.37 -3.84,-4.11 0.81,-8.57 -0.54,-2.59 3.47,-4.89l0.29 -59.72c-2.92,-4.81 1.78,-2.06 -3.74,-3.91 0.68,-8.64 -0.59,-2.52 3.45,-4.87l0.03 -55.89c-9.78,-7.74 0.85,6.83 -1.99,-2.5 -1.87,-6.13 -3.21,1.68 2.05,-2.52l-0.1 -6.9c-5.98,2.45 0.07,-1.24 -4.94,4.93l-1.84 2.69c-3.88,-5.7 -2.55,-4.12 -5.46,-11.26 -5.16,5.03 -2.52,1.42 -1.92,8.41 1.33,15.37 -2.42,38.37 -0.68,55.67 1.36,13.56 7.9,11.62 -0.11,15.95z"/>
    <path class="fil1" d="M3670.81 4608.79c4.86,-2.03 9.54,-0.17 20.83,-3.52 23.68,-7.04 20.96,-11.55 39.46,-20.15l-0.2 53.26c-10.79,-5.41 0.38,-3.8 -27.67,-17.9 -29.21,-14.69 -29.89,-4.31 -32.42,-11.69zm60.61 37.6c8.02,-4.33 1.48,-2.39 0.11,-15.95 -1.74,-17.3 2.01,-40.3 0.68,-55.67 -0.6,-6.99 -3.24,-3.38 1.92,-8.41 2.91,7.14 1.59,5.57 5.46,11.26l1.84 -2.69c5.01,-6.17 -1.04,-2.47 4.94,-4.93l13.99 -23.06c1.37,-1.93 2.16,-2.52 3.4,-4.36l9.35 -19.9c5.74,-18.27 7.84,-7.99 7.73,-29.19 -0.07,-14.53 1.57,-21.06 -6.74,-30.91 -14.31,-14.35 -6.51,-8.09 -17.2,-11.7 -13.38,-4.53 -18.85,-4.53 -34,1.73 -0.45,0.19 -0.99,0.36 -1.42,0.57 -0.42,0.2 -0.93,0.45 -1.33,0.69 -2.23,1.3 -5.97,5.45 -8.17,7.62l-6.77 8.95c-8.61,21.6 -3.9,29.17 2.42,49.3l14.24 30.81c2.39,3.39 5.89,5.96 7.88,12.03l0.92 11.18c-10.43,-1.01 -8.44,-5.34 -15.78,-10.17 -9.08,-5.97 -19.37,-8.5 -28.82,-11.9 -16.51,-5.92 -29.88,-8.38 -41.87,6.06 -1.19,1.43 -2.5,4.07 -2.95,5.21 -2.87,7.21 -6.35,14.04 -3.98,20.95 0.02,0.04 4.28,8.37 4.69,9.25 9.62,20.27 18.12,8.39 23.92,17.56 -9.55,3.54 -19.4,-1.69 -25.04,14.45l-3.48 10.53c-4.85,16.35 14.85,45.18 46.67,34.16 0.48,-0.17 0.99,-0.34 1.47,-0.5 23.37,-7.8 13.81,-2.6 33.49,-15.19 3.61,-2.31 1.2,-0.46 4.81,-3.06 5.6,-4.03 -0.08,-3.2 7.61,-4.74z"/>
    <path class="fil1" d="M3746.48 4576.92c-5.26,4.2 -3.93,-3.6 -2.05,2.52 2.84,9.33 -7.79,-5.24 1.99,2.5 7.25,1.46 5.9,5.04 12.78,9.52l31.87 15.61c9.06,2.2 15.58,-2.54 19.49,3.68 -5.31,1.96 -11.75,1.17 -20.31,3.62l-30.36 16.32c-4.53,3.45 -6.25,5.84 -13.5,7.15 -4.04,2.35 -2.77,-3.76 -3.45,4.87 5.52,1.86 0.82,-0.89 3.74,3.91 2.37,0.41 2.21,0.63 3.5,1.18l29.57 16.8c27.6,14.08 64.3,11.13 62.13,-28.53 -0.5,-9.1 0.35,-4.67 -2.67,-11.11 -8.44,-17.98 -20.7,-7.35 -23.74,-16.17 6.42,-2.67 11.69,-0.36 17.67,-6.94l5.68 -7.63c3.96,-5.78 2.64,-0.59 3.06,-10.67 0.62,-14.9 1.11,-27.11 -19.63,-35.04 -6,-2.3 -9.94,-2.34 -16.23,-0.45 -0.62,0.19 -2.19,0.91 -2.81,1.11 -21.83,7.01 -22.39,4.37 -49.09,23.03 -5.42,3.79 -0.3,3.1 -7.64,4.72z"/>
    <path class="fil1" d="M3746.38 4706.34c-4.01,2.29 -2.66,-3.68 -3.47,4.89 5.45,1.74 0.8,-0.9 3.84,4.11 11.15,-1.89 2.54,2.69 23.91,13.22 11.48,5.65 36.72,16.08 48.84,10.41 0.4,-0.19 0.87,-0.48 1.26,-0.67 13.85,-6.96 25.87,-14.16 20.51,-39.15 -0.11,-0.55 -0.26,-1.04 -0.41,-1.55 -0.14,-0.49 -0.34,-0.98 -0.5,-1.44 -0.16,-0.45 -0.4,-0.94 -0.58,-1.37 -0.18,-0.42 -0.44,-0.91 -0.63,-1.31 -2.43,-5.09 -4.85,-9.57 -10.12,-11.83 -5.44,-2.32 -3.06,-0.66 -8.34,-1.76 -14.15,-2.94 -6.54,-4.23 -30.34,2.96 -13.46,4.07 -20.22,8.79 -31.48,17.25 -4.12,3.1 -7.74,5.43 -12.49,6.25z"/>
    <path class="fil6" d="M3746.39 4637.83c7.26,-1.31 8.97,-3.7 13.5,-7.15l30.36 -16.32c8.56,-2.45 15,-1.66 20.31,-3.62 -3.91,-6.22 -10.43,-1.48 -19.49,-3.68l-31.87 -15.61c-6.89,-4.48 -5.53,-8.06 -12.78,-9.52l-0.03 55.89z"/>
    <path class="fil6" d="M3670.81 4608.79c2.53,7.39 3.21,-3 32.42,11.69 28.05,14.1 16.88,12.49 27.67,17.9l0.2 -53.26c-18.5,8.59 -15.79,13.1 -39.46,20.15 -11.3,3.36 -15.97,1.49 -20.83,3.52z"/>
    <g>
     <path class="fil7" d="M3721.67 4254.91l819.44 0 0 20.94 -819.44 0 0 0 0 -20.94zm-265.04 285.99l-20.94 0 0 0 0.37 -14.65 1.11 -14.48 1.83 -14.28 2.53 -14.05 3.21 -13.81 3.87 -13.55 4.51 -13.28 5.14 -12.98 5.75 -12.67 6.34 -12.32 6.91 -11.97 7.46 -11.6 7.99 -11.22 8.51 -10.81 9 -10.38 9.48 -9.94 9.94 -9.48 10.38 -9 10.81 -8.5 11.21 -7.99 11.61 -7.46 11.97 -6.91 12.33 -6.33 12.66 -5.75 12.97 -5.14 13.28 -4.51 13.55 -3.87 13.81 -3.21 14.06 -2.53 14.27 -1.83 14.48 -1.11 14.65 -0.38 0 20.94 -13.59 0.35 -13.41 1.03 -13.22 1.69 -13.01 2.34 -12.79 2.97 -12.55 3.58 -12.29 4.18 -12.02 4.76 -11.73 5.32 -11.42 5.87 -11.1 6.4 -10.76 6.91 -10.4 7.41 -10.02 7.89 -9.63 8.35 -9.22 8.8 -8.8 9.22 -8.35 9.63 -7.89 10.02 -7.41 10.4 -6.91 10.76 -6.4 11.1 -5.87 11.43 -5.32 11.73 -4.76 12.02 -4.18 12.29 -3.58 12.55 -2.97 12.79 -2.34 13.01 -1.69 13.22 -1.03 13.41 -0.35 13.59 0 0zm-20.94 813.15l0 -813.15 20.94 0 0 813.15 0 0 -20.94 0zm285.99 265.05l0 20.94 0 0 -14.65 -0.38 -14.48 -1.11 -14.27 -1.83 -14.06 -2.53 -13.81 -3.21 -13.55 -3.87 -13.28 -4.51 -12.97 -5.14 -12.66 -5.75 -12.33 -6.33 -11.97 -6.91 -11.61 -7.46 -11.22 -7.99 -10.81 -8.51 -10.38 -9 -9.94 -9.48 -9.48 -9.94 -9 -10.39 -8.51 -10.81 -7.99 -11.21 -7.46 -11.61 -6.91 -11.97 -6.34 -12.33 -5.75 -12.66 -5.14 -12.97 -4.51 -13.28 -3.87 -13.55 -3.21 -13.81 -2.53 -14.05 -1.83 -14.28 -1.11 -14.48 -0.37 -14.65 20.94 0 0.35 13.59 1.03 13.41 1.69 13.22 2.34 13.01 2.97 12.79 3.58 12.55 4.18 12.29 4.76 12.02 5.32 11.73 5.87 11.43 6.4 11.1 6.91 10.76 7.41 10.4 7.89 10.03 8.35 9.63 8.8 9.22 9.22 8.8 9.63 8.35 10.03 7.89 10.4 7.41 10.76 6.91 11.1 6.4 11.42 5.87 11.73 5.32 12.02 4.76 12.29 4.18 12.55 3.58 12.79 2.97 13.01 2.34 13.22 1.69 13.41 1.03 13.59 0.35 0 0zm819.44 20.94l-819.44 0 0 -20.94 819.44 0 0 0 0 20.94zm265.04 -285.99l20.94 0 0 0 -0.37 14.65 -1.11 14.48 -1.83 14.28 -2.53 14.05 -3.21 13.81 -3.87 13.55 -4.51 13.28 -5.14 12.97 -5.75 12.66 -6.34 12.33 -6.91 11.97 -7.46 11.61 -7.99 11.21 -8.51 10.81 -9 10.39 -9.48 9.94 -9.94 9.48 -10.38 9 -10.81 8.51 -11.22 7.99 -11.61 7.46 -11.97 6.91 -12.33 6.33 -12.66 5.75 -12.97 5.14 -13.28 4.51 -13.55 3.87 -13.81 3.21 -14.06 2.53 -14.27 1.83 -14.48 1.11 -14.65 0.38 0 -20.94 13.59 -0.35 13.41 -1.03 13.22 -1.69 13.01 -2.34 12.79 -2.97 12.55 -3.58 12.29 -4.18 12.02 -4.76 11.73 -5.32 11.42 -5.87 11.1 -6.4 10.76 -6.91 10.4 -7.41 10.03 -7.89 9.63 -8.35 9.22 -8.8 8.8 -9.22 8.35 -9.63 7.89 -10.03 7.41 -10.4 6.91 -10.76 6.4 -11.1 5.87 -11.43 5.32 -11.73 4.76 -12.02 4.18 -12.29 3.58 -12.55 2.97 -12.79 2.34 -13.01 1.69 -13.22 1.03 -13.41 0.35 -13.59 0 0zm20.94 -813.15l0 813.15 -20.94 0 0 -813.15 0 0 20.94 0zm-285.99 -265.04l0 -20.94 0 0 14.65 0.38 14.48 1.11 14.27 1.83 14.06 2.53 13.81 3.21 13.55 3.87 13.28 4.51 12.97 5.14 12.66 5.75 12.33 6.33 11.97 6.91 11.61 7.46 11.21 7.99 10.81 8.5 10.38 9 9.94 9.48 9.48 9.94 9 10.38 8.51 10.81 7.99 11.22 7.46 11.6 6.91 11.97 6.34 12.32 5.75 12.67 5.14 12.98 4.51 13.28 3.87 13.55 3.21 13.81 2.53 14.05 1.83 14.28 1.11 14.48 0.37 14.65 -20.94 0 -0.35 -13.59 -1.03 -13.41 -1.69 -13.22 -2.34 -13.01 -2.97 -12.79 -3.58 -12.55 -4.18 -12.29 -4.76 -12.02 -5.32 -11.73 -5.87 -11.43 -6.4 -11.1 -6.91 -10.76 -7.41 -10.4 -7.89 -10.02 -8.35 -9.63 -8.8 -9.22 -9.22 -8.8 -9.63 -8.35 -10.02 -7.89 -10.4 -7.41 -10.76 -6.91 -11.1 -6.4 -11.42 -5.87 -11.73 -5.32 -12.02 -4.76 -12.29 -4.18 -12.55 -3.58 -12.79 -2.97 -13.01 -2.34 -13.22 -1.69 -13.41 -1.03 -13.59 -0.35 0 0z"/>
    </g>
   </g>
   <path class="fil0" d="M3856.54 6696.44l29.35 87.46 -57.85 -0.03 28.5 -87.44zm-177.67 245.94l96.42 -0.29 20.79 -57.23 118.23 -1.56 49.46 176.68 97.69 0.12 -149.78 -490.46 -113.42 0.2c0,0 -117.05,346.08 -119.4,372.53z"/>
   <path class="fil0" d="M5474.85 6696.44l29.35 87.46 -57.85 -0.03 28.5 -87.44zm-177.67 245.94l96.42 -0.29 20.79 -57.23 118.23 -1.56 49.47 176.68 97.69 0.12 -149.78 -490.46 -113.41 0.2c0,0 -117.05,346.08 -119.41,372.53z"/>
  </g>
 </g>
</svg>
